<?xml version="1.0" encoding="utf-8"?>
<!-- Generator: Adobe Illustrator 25.2.0, SVG Export Plug-In . SVG Version: 6.00 Build 0)  -->
<svg version="1.1" id="Ebene_1" xmlns="http://www.w3.org/2000/svg" xmlns:xlink="http://www.w3.org/1999/xlink" x="0px" y="0px"
	 viewBox="0 0 100 100" style="enable-background:new 0 0 100 100;" xml:space="preserve">
<style type="text/css">
	.st0{fill:#FFFFFF;}
</style>
<path class="st0" d="M89,0H11C4.9,0,0,4.9,0,11v78c0,6,4.9,11,11,11h78c6,0,11-4.9,11-11V11C100,4.9,95.1,0,89,0z M78.1,37.8
	c-0.9,0.8-1.2,1.6-1.3,2.8c-0.5,13.9-6.1,25.2-18,32.2c-12.1,7.2-24.6,6.8-36.8-0.1c-0.2-0.1-0.4-0.3-0.8-0.6
	c6.9,0.5,12.9-1.2,18.5-5.5c-2.8-0.3-5.3-1.1-7.4-2.7c-2-1.6-3.6-3.6-4.4-6.4c1.8,0,3.5,0,5.1,0c0-0.1,0.1-0.2,0.1-0.4
	c-2.8-0.8-5.2-2.3-7.1-4.7c-1.8-2.3-2.7-5-2.8-8c1.8,0.5,3.5,1,5.3,1.5c0.1-0.1,0.1-0.2,0.2-0.3c-2.5-2.1-4.3-4.6-5-7.9
	c-0.6-3.2-0.3-6.3,1.4-9.4c6.9,8.3,15.7,12.9,26.4,13.7c-0.3-2.7-0.4-5.2,0.6-7.6c3.2-8.6,13.8-11.3,20.5-5.1
	c0.7,0.7,1.4,0.8,2.2,0.5c2.2-0.8,4.4-1.6,6.6-2.5c-0.9,2.8-2.7,4.9-4.9,6.9c2.1-0.6,4.3-1.2,6.4-1.7c0.1,0.1,0.2,0.1,0.2,0.2
	C81.4,34.5,79.8,36.3,78.1,37.8z"/>
</svg>
