<?xml version="1.0" encoding="utf-8"?>
<!-- Generator: Adobe Illustrator 25.2.0, SVG Export Plug-In . SVG Version: 6.00 Build 0)  -->
<svg version="1.1" id="Ebene_1" xmlns="http://www.w3.org/2000/svg" xmlns:xlink="http://www.w3.org/1999/xlink" x="0px" y="0px"
	 viewBox="0 0 100 100" style="enable-background:new 0 0 100 100;" xml:space="preserve">
<style type="text/css">
	.st0{fill:#FFFFFF;}
</style>
<g>
	<path class="st0" d="M74.1,31.8c-0.5-1.3-1.3-2.6-2.3-3.6c-1-1-2.2-1.8-3.6-2.3c-1.1-0.4-2.7-0.9-5.7-1.1
		c-3.3-0.1-4.2-0.2-12.5-0.2c-8.3,0-9.2,0-12.5,0.2c-3,0.1-4.7,0.6-5.7,1.1c-1.3,0.5-2.6,1.3-3.6,2.3c-1,1-1.8,2.2-2.3,3.6
		c-0.4,1.1-0.9,2.7-1.1,5.7c-0.1,3.3-0.2,4.2-0.2,12.5c0,8.3,0,9.2,0.2,12.5c0.1,3,0.6,4.7,1.1,5.7c0.5,1.3,1.3,2.6,2.3,3.6
		c1,1,2.2,1.8,3.6,2.3c1.1,0.4,2.7,0.9,5.7,1.1c3.3,0.1,4.2,0.2,12.5,0.2c8.3,0,9.2,0,12.5-0.2c3-0.1,4.7-0.6,5.7-1.1
		c1.3-0.5,2.5-1.3,3.6-2.3s1.8-2.2,2.3-3.6c0.4-1.1,0.9-2.7,1.1-5.7c0.1-3.3,0.2-4.2,0.2-12.5c0-8.3,0-9.2-0.2-12.5
		C75,34.5,74.5,32.8,74.1,31.8z M63.2,58.8c-1.7,2.6-4.2,4.6-7.1,5.8c-2.9,1.2-6.1,1.5-9.2,0.9c-3.1-0.6-5.9-2.1-8.1-4.3
		c-2.2-2.2-3.7-5.1-4.3-8.1c-0.6-3.1-0.3-6.3,0.9-9.2c1.2-2.9,3.2-5.4,5.8-7.1c2.6-1.7,5.7-2.7,8.8-2.7c4.2,0,8.3,1.7,11.2,4.7
		s4.7,7,4.7,11.2C65.9,53.1,65,56.2,63.2,58.8z M66.5,37.2c-2,0-3.7-1.7-3.7-3.7c0-2,1.7-3.7,3.7-3.7c2,0,3.7,1.7,3.7,3.7
		C70.2,35.5,68.6,37.2,66.5,37.2z"/>
	<path class="st0" d="M53.9,40.5c-1.9-0.8-4-1-6-0.6c-2,0.4-3.8,1.4-5.3,2.8c-1.4,1.4-2.4,3.3-2.8,5.3c-0.4,2-0.2,4.1,0.6,6
		c0.8,1.9,2.1,3.5,3.8,4.6c1.7,1.1,3.7,1.7,5.7,1.7c2.7,0,5.4-1.1,7.3-3c1.9-1.9,3-4.6,3-7.3c0-2-0.6-4-1.7-5.7
		C57.4,42.6,55.8,41.3,53.9,40.5z"/>
	<path class="st0" d="M89,0H11C4.9,0,0,4.9,0,11v78c0,6,4.9,11,11,11h78c6,0,11-4.9,11-11V11C100,4.9,95.1,0,89,0z M80.7,62.8
		c-0.2,3.3-0.7,5.5-1.4,7.5c-0.8,2.1-2,3.9-3.6,5.5c-1.6,1.6-3.4,2.8-5.5,3.6c-2,0.8-4.2,1.3-7.5,1.4c-3.3,0.2-4.4,0.2-12.8,0.2
		c-8.4,0-9.5,0-12.8-0.2c-3.3-0.2-5.5-0.7-7.5-1.4c-2.1-0.8-3.9-2-5.5-3.6c-1.6-1.5-2.8-3.4-3.6-5.5c-0.8-2-1.3-4.2-1.4-7.5
		c-0.2-3.3-0.2-4.4-0.2-12.8s0-9.5,0.2-12.8c0.1-3.3,0.7-5.5,1.4-7.5c0.8-2.1,2-3.9,3.6-5.5c1.5-1.6,3.4-2.8,5.5-3.6
		c2-0.8,4.2-1.3,7.5-1.4c3.3-0.2,4.4-0.2,12.8-0.2c0,0,0,0,0,0h0c0,0,0,0,0,0c8.4,0,9.5,0,12.8,0.2c3.3,0.1,5.5,0.7,7.5,1.4
		c2.1,0.8,3.9,2,5.5,3.6c1.6,1.5,2.8,3.4,3.6,5.5c0.8,2,1.3,4.2,1.4,7.5c0.2,3.3,0.2,4.4,0.2,12.8C80.9,58.4,80.9,59.5,80.7,62.8z"
		/>
</g>
</svg>
