<?xml version="1.0" encoding="utf-8"?>
<!-- Generator: Adobe Illustrator 25.2.0, SVG Export Plug-In . SVG Version: 6.00 Build 0)  -->
<svg version="1.1" id="Ebene_1" xmlns="http://www.w3.org/2000/svg" xmlns:xlink="http://www.w3.org/1999/xlink" x="0px" y="0px"
	 viewBox="0 0 100 100" style="enable-background:new 0 0 100 100;" xml:space="preserve">
<style type="text/css">
	.st0{fill:#FFFFFF;}
</style>
<path class="st0" d="M89,0H11C4.9,0,0,4.9,0,11v78c0,6,4.9,11,11,11h78c6,0,11-4.9,11-11V11C100,4.9,95.1,0,89,0z M75.2,66.8
	c0,0.7,0.4,1.6,0.9,2.2c1.2,1.4,2.5,2.5,3.8,3.8c0.3,0.4,0.5,0.9,0.9,1.5c-8.3,0-16.2,0-24.4,0c0.3-0.6,0.4-1.2,0.8-1.5
	c1.3-1.4,2.7-2.6,4-3.9c0.4-0.4,0.8-1.1,0.8-1.7c0.1-8.9,0-17.8,0-26.7c0-0.1,0-0.3-0.1-0.7c-0.3,0.8-0.5,1.2-0.7,1.7
	C56.9,52,52.7,62.5,48.6,73.1c-0.3,0.6-0.3,1.3-1.3,1.3c-1,0-1.3-0.5-1.6-1.2C40.8,62.6,36,52,31.2,41.4c-0.3-0.5-0.5-1.1-1-1.5
	c0,0.3,0,0.7,0,1c0,7.4-0.1,14.8,0,22.2c0,0.8,0.4,1.8,1,2.5c1.9,2.4,3.8,4.7,5.7,7.1c0.3,0.4,0.5,0.9,0.8,1.5c-6.3,0-12.3,0-18.7,0
	c0.3-0.6,0.5-1.2,0.8-1.6c1.8-2.3,3.6-4.5,5.5-6.7c0.8-1,1.2-2,1.2-3.3c-0.1-8.9,0-17.7-0.1-26.6c0-0.9-0.4-2-1-2.8
	c-1.5-2-3.2-3.9-4.7-5.8c-0.4-0.5-0.6-1.1-1-1.9c2.8,0,5.2,0,7.6,0c3,0,6.1,0,9.1,0c1,0,1.5,0.3,1.9,1.2c4.1,9.3,8.4,18.5,12.6,27.7
	c0.2,0.4,0.4,0.7,0.6,1.3c2-4.9,3.9-9.6,5.7-14.3c2-5,3.9-9.9,5.9-14.8c0.2-0.4,0.7-1,1-1c5.4-0.1,10.9,0,16.6,0
	c-0.4,0.7-0.6,1.2-0.9,1.5c-1.3,1.3-2.7,2.5-3.9,3.8c-0.5,0.6-0.9,1.4-0.9,2.2C75.2,44.4,75.2,55.6,75.2,66.8z"/>
</svg>
