<?xml version="1.0" encoding="utf-8"?>
<!-- Generator: Adobe Illustrator 25.2.0, SVG Export Plug-In . SVG Version: 6.00 Build 0)  -->
<svg version="1.1" id="Ebene_1" xmlns="http://www.w3.org/2000/svg" xmlns:xlink="http://www.w3.org/1999/xlink" x="0px" y="0px"
	 viewBox="0 0 100 100" style="enable-background:new 0 0 100 100;" xml:space="preserve">
<style type="text/css">
	.st0{fill:#FFFFFF;}
</style>
<g>
	<path class="st0" d="M40.1,47.5c-3,0-5.4,2.6-5.4,5.9c0,3.2,2.4,5.9,5.4,5.9c3,0,5.4-2.6,5.4-5.9C45.6,50.1,43.1,47.5,40.1,47.5z"
		/>
	<path class="st0" d="M59.5,47.5c-3,0-5.4,2.6-5.4,5.9c0,3.2,2.4,5.9,5.4,5.9c3,0,5.4-2.6,5.4-5.9C64.9,50.1,62.4,47.5,59.5,47.5z"
		/>
	<path class="st0" d="M89,0H11C4.9,0,0,4.9,0,11v78c0,6,4.9,11,11,11h78c6,0,11-4.9,11-11V11C100,4.9,95.1,0,89,0z M64.8,72.1
		c0,0-1.9-2.3-3.5-4.3c6.9-2,9.6-6.3,9.6-6.3c-2.2,1.4-4.2,2.5-6.1,3.1c-2.7,1.1-5.2,1.8-7.7,2.3c-5.1,1-9.7,0.7-13.7-0.1
		c-3-0.6-5.6-1.4-7.8-2.3c-1.2-0.5-2.5-1.1-3.9-1.8c-0.2-0.1-0.3-0.2-0.5-0.3c-0.1,0-0.2-0.1-0.2-0.1c-1-0.5-1.5-0.9-1.5-0.9
		s2.5,4.2,9.3,6.2c-1.6,2-3.6,4.4-3.6,4.4c-11.7-0.4-16.2-8-16.2-8c0-17,7.6-30.7,7.6-30.7c7.2-5.3,13.9-5.5,14.8-5.5
		c0.1,0,0.1,0,0.1,0l0.5,0.6c-9.5,2.7-13.9,6.9-13.9,6.9s1.2-0.6,3.1-1.5c5.7-2.5,10.2-3.1,12-3.4c0.3,0,0.6-0.1,0.9-0.1
		c3.2-0.4,6.9-0.5,10.7-0.1c5,0.6,10.4,2.1,16,5.1c0,0-4.2-4-13.2-6.7l0.7-0.9c0,0,7.3-0.2,14.8,5.5c0,0,7.6,13.8,7.6,30.7
		C80.9,64.1,76.5,71.7,64.8,72.1z"/>
</g>
</svg>
