<?xml version="1.0" encoding="utf-8"?>
<!-- Generator: Adobe Illustrator 25.2.0, SVG Export Plug-In . SVG Version: 6.00 Build 0)  -->
<svg version="1.1" id="Ebene_1" xmlns="http://www.w3.org/2000/svg" xmlns:xlink="http://www.w3.org/1999/xlink" x="0px" y="0px"
	 viewBox="0 0 100 100" style="enable-background:new 0 0 100 100;" xml:space="preserve">
<style type="text/css">
	.st0{fill:#FFFFFF;}
</style>
<path class="st0" d="M89,0H11C4.9,0,0,4.9,0,11v78c0,6,4.9,11,11,11h78c6,0,11-4.9,11-11V11C100,4.9,95.1,0,89,0z M78,26.8L50,51.3
	L22,26.8H78z M19.1,29.4l20.5,18l-20.5,23V29.4z M21.7,73.2l20.8-23.3l7.5,6.6l7.5-6.6l20.8,23.3H21.7z M80.9,70.3l-20.5-23l20.5-18
	V70.3z"/>
</svg>
